<!DOCTYPE svg PUBLIC "-//W3C//DTD SVG 1.1//EN" "http://www.w3.org/Graphics/SVG/1.1/DTD/svg11.dtd">
<!-- Uploaded to: SVG Repo, www.svgrepo.com, Transformed by: SVG Repo Mixer Tools -->
<svg fill="rgb(255, 212, 1)" height="256px" width="256px" version="1.1" id="Capa_1" xmlns="http://www.w3.org/2000/svg" xmlns:xlink="http://www.w3.org/1999/xlink" viewBox="0 0 317.752 317.752" xml:space="preserve">
<g id="SVGRepo_bgCarrier" stroke-width="0"/>
<g id="SVGRepo_tracerCarrier" stroke-linecap="round" stroke-linejoin="round"/>
<g id="SVGRepo_iconCarrier"> <g> <path d="M190.859,114.492l-20.54-41.618c-2.15-4.356-6.586-7.114-11.444-7.114c-4.857,0-9.294,2.758-11.444,7.114l-20.54,41.618 l-45.928,6.674c-4.807,0.698-8.801,4.065-10.302,8.685c-1.501,4.62-0.249,9.692,3.23,13.082l33.234,32.396l-7.845,45.743 c-0.821,4.787,1.147,9.627,5.077,12.482c3.931,2.855,9.14,3.232,13.44,0.971l41.08-21.597l41.08,21.597 c1.867,0.981,3.906,1.466,5.937,1.466c2.646,0,5.279-0.822,7.502-2.437c3.93-2.856,5.898-7.694,5.077-12.482l-7.846-45.743 l33.235-32.396c3.479-3.39,4.731-8.462,3.23-13.082c-1.501-4.62-5.495-7.987-10.302-8.685L190.859,114.492z"/> <path d="M286.527,0H31.225C18.685,0,8.519,10.166,8.519,22.707v272.339c0,12.54,10.166,22.707,22.707,22.707h255.301 c12.54,0,22.707-10.166,22.707-22.707V22.707C309.233,10.166,299.067,0,286.527,0z M158.876,274.646 c-63.986,0-115.77-51.778-115.77-115.77c0-63.985,51.778-115.77,115.77-115.77c63.986,0,115.77,51.779,115.77,115.77 C274.646,222.862,222.867,274.646,158.876,274.646z"/> </g> </g>
</svg>